<svg width="353" height="290" viewBox="0 0 353 290" fill="none" xmlns="http://www.w3.org/2000/svg">
<path d="M32.9974 0.134871H34.9576V151.441H5.45395V0.134871H32.9733H32.9974ZM194.161 94.3256H196.141V120.313H178.986V150.459H153.029V120.313H67.8423V94.738L68.0235 94.3418L110.435 2.07351L110.971 0.918384H179.002V94.309L194.161 94.3256ZM153.029 94.3256V27.0216H127.474L96.6416 94.3256H153.029ZM352.812 75.837C352.812 126.162 331.191 151.638 288.564 151.638C245.938 151.638 225.347 126.138 225.347 75.837C224.234 57.9716 227.911 40.133 235.997 24.167C245.889 8.14537 263.587 0.0276158 288.564 0.0276158C299.632 -0.264953 310.637 1.76989 320.869 6.00064C329.558 9.79394 336.904 16.1184 341.949 24.1504C350.179 40.0738 353.931 57.9366 352.804 75.829L352.812 75.837ZM327.414 75.837C327.414 56.5319 324.595 43.1256 319.014 35.9811C313.549 28.9933 303.303 25.446 288.564 25.446C274.913 25.446 265.377 28.4324 260.2 34.3229C253.844 41.517 250.636 55.4842 250.636 75.837C250.636 96.1899 253.934 109.984 260.389 117.236C264.206 120.609 268.683 123.151 273.535 124.699C278.387 126.248 283.508 126.768 288.572 126.229C303.105 126.229 313.303 122.615 318.925 115.503C324.547 108.21 327.414 94.8948 327.414 75.8537V75.837ZM31.6289 197.459L12.4535 171.216H0L26.658 207.657V231.961H36.6803V207.525L63.4711 171.224H50.9733L31.6289 197.459ZM87.8147 205.858H115.016V195.834H87.8147V181.248H126.878V171.224H77.8003V175.201V232.027H128.601V221.962H87.8549V205.866L87.8147 205.858ZM178.427 171.34L206.453 231.969H195.569L188.747 217.276H158.897L152.204 231.969H141.312L168.96 171.34H178.427ZM173.725 184.688L163.413 207.384H184.195L173.725 184.688ZM261.343 206.427L277.326 232.002H265.336L265.227 231.829L250.149 207.599H229.682V232.002H219.519V171.29H219.599V171.208H251.747C257.516 170.907 263.209 172.641 267.831 176.108C269.786 177.72 271.343 179.763 272.376 182.078C273.408 184.393 273.891 186.916 273.784 189.448C274.106 193.307 273.021 197.152 270.729 200.272C268.438 203.391 265.095 205.575 261.319 206.419L261.343 206.427ZM251.791 181.421H229.69V197.467H251.791C259.755 197.467 263.645 194.852 263.645 189.465C263.645 184.078 259.755 181.421 251.791 181.421ZM337.783 200.066C331.553 197.691 325.021 196.199 318.378 195.636L314.751 195.174C310.684 194.822 306.667 194.045 302.761 192.856C302.099 192.588 301.539 192.113 301.171 191.501C300.802 190.89 300.644 190.176 300.716 189.465C300.716 183.797 306.065 180.918 316.575 180.918C323.961 181.294 331.192 183.193 337.811 186.495L338.129 186.644L342.122 177.816L341.784 177.668C333.92 173.789 325.333 171.597 316.575 171.232C310.457 170.978 304.394 172.493 299.114 175.597C296.633 176.955 294.572 178.965 293.149 181.41C291.725 183.856 290.993 186.643 291.036 189.473C290.867 191.894 291.432 194.311 292.654 196.407C293.876 198.504 295.698 200.184 297.886 201.23C302.907 203.171 308.182 204.369 313.548 204.785L317.36 205.289C322.743 205.726 328.054 206.812 333.178 208.523C334.2 209.07 335.028 209.916 335.557 210.948C336.086 211.98 336.289 213.148 336.137 214.298C336.137 219.611 330.062 222.3 318.068 222.3C309.481 221.842 301.215 218.864 294.308 213.737L293.994 213.53L288.605 221.591L288.911 221.797C297.411 228.001 307.557 231.546 318.068 231.986C325.143 232.356 332.179 230.742 338.387 227.324C340.719 225.874 342.632 223.842 343.941 221.426C345.25 219.01 345.911 216.295 345.853 213.548C345.795 210.8 345.021 208.115 343.611 205.757C342.201 203.399 340.203 201.449 337.811 200.099L337.783 200.066ZM41.8485 270.885C41.8485 258.279 35.0966 251.91 21.7836 251.91C8.47065 251.91 1.69455 258.304 1.69455 270.885C1.69455 283.466 8.45417 289.975 21.7836 289.975C35.1131 289.975 41.8083 283.565 41.8083 270.893L41.8485 270.885ZM35.3199 270.885C35.5023 272.629 35.3345 274.392 34.8248 276.069C34.3151 277.747 33.4749 279.305 32.3534 280.653C29.2828 282.829 25.5271 283.819 21.7836 283.441C18.0459 283.817 14.3014 282.807 11.2581 280.603C10.1265 279.273 9.27569 277.726 8.75852 276.057C8.24136 274.388 8.07067 272.631 8.25137 270.893C8.06655 269.166 8.24258 267.419 8.7706 265.764C9.29861 264.109 10.1635 262.582 11.3144 261.282C14.3472 259.095 18.0709 258.087 21.7917 258.444C30.8593 258.444 35.3199 262.511 35.3199 270.885ZM60.231 290V274.069H77.4099V267.246H60.231V258.658H84.82V251.803H53.4326V289.992H60.2551L60.231 290ZM121.851 290V274.069H139.029V267.246H121.851V258.658H146.44V251.803H115.048V289.992H121.875L121.851 290ZM165.365 289.951V251.86H158.434V289.951H165.365ZM216.476 289.951L206.526 274.028C208.838 273.434 210.867 272.039 212.249 270.09C213.632 268.142 214.278 265.767 214.077 263.386C214.143 261.78 213.838 260.181 213.183 258.713C212.528 257.246 211.541 255.951 210.301 254.929C207.392 252.747 203.809 251.655 200.178 251.844H180.001V289.959H186.815V274.886H199.043L208.405 289.959L216.476 289.951ZM186.799 268.047V258.691H200.162C204.91 258.691 207.202 260.226 207.202 263.386C207.202 266.546 204.902 268.055 200.162 268.055L186.799 268.047ZM254.939 286.973C256.426 286.051 257.647 284.758 258.481 283.219C259.315 281.681 259.735 279.951 259.697 278.201C259.658 276.452 259.165 274.742 258.264 273.242C257.363 271.742 256.087 270.503 254.561 269.647C250.688 268.152 246.623 267.221 242.486 266.883L240.252 266.603C237.767 266.388 235.309 265.915 232.922 265.192C232.564 265.046 232.264 264.788 232.065 264.456C231.866 264.125 231.776 263.737 231.815 263.353C231.815 259.986 234.925 258.345 241.338 258.345C245.863 258.579 250.292 259.745 254.347 261.768L254.79 261.975L257.487 256.01L257.032 255.795C252.145 253.39 246.812 252.031 241.371 251.803C237.54 251.649 233.745 252.599 230.439 254.542C228.867 255.408 227.561 256.685 226.659 258.237C225.757 259.789 225.297 261.557 225.323 263.353C225.218 264.898 225.577 266.44 226.357 267.779C227.137 269.117 228.302 270.191 229.698 270.86C232.821 272.079 236.108 272.827 239.451 273.079L241.801 273.393C245.1 273.659 248.353 274.321 251.494 275.365C252.066 275.688 252.528 276.174 252.822 276.762C253.116 277.35 253.229 278.013 253.144 278.665C253.144 281.759 249.473 283.334 242.252 283.334C237.001 283.056 231.951 281.233 227.73 278.095L227.307 277.815L223.672 283.26L224.091 283.541C229.378 287.4 235.69 289.608 242.228 289.885C246.649 290.112 251.045 289.101 254.923 286.964L254.939 286.973ZM287.912 289.943V258.683H302.511V251.877H266.447V258.683H281.11V289.943H287.912ZM339.425 286.973C340.912 286.052 342.132 284.759 342.967 283.221C343.802 281.683 344.224 279.954 344.187 278.204C344.149 276.454 343.654 274.744 342.754 273.244C341.854 271.743 340.58 270.503 339.055 269.647C335.185 268.152 331.122 267.221 326.988 266.883L324.734 266.603C322.249 266.384 319.796 265.912 317.408 265.192C317.052 265.044 316.752 264.785 316.555 264.454C316.357 264.122 316.271 263.736 316.309 263.353C316.309 259.986 319.427 258.345 325.832 258.345C330.355 258.577 334.782 259.743 338.833 261.768L339.292 261.975L341.981 256.01L341.51 255.795C336.624 253.387 331.29 252.027 325.848 251.803C322.018 251.646 318.221 252.596 314.916 254.542C313.339 255.402 312.029 256.678 311.125 258.231C310.221 259.784 309.758 261.555 309.789 263.353C309.684 264.9 310.049 266.443 310.831 267.781C311.613 269.12 312.777 270.193 314.176 270.86C317.296 272.078 320.581 272.826 323.92 273.079L326.283 273.393C329.576 273.659 332.828 274.321 335.963 275.365C336.54 275.683 337.005 276.168 337.3 276.758C337.594 277.347 337.701 278.012 337.61 278.665C337.61 281.759 333.951 283.334 326.73 283.334C321.48 283.052 316.431 281.23 312.208 278.095L311.777 277.815L308.142 283.26L308.561 283.541C313.847 287.402 320.159 289.609 326.698 289.885C331.118 290.113 335.515 289.101 339.393 286.964L339.425 286.973Z" fill="black"/>
</svg>
